# xmcd CD database file
#
# Track frame offsets:
#	150
#	16663
#	34275
#	51613
#	68475
#	85533
#	101363
#	119625
#	137738
#	154100
#	169325
#	187263
#
# Disc length: 2710 seconds
#
# Revision: 0
# Processed by: cddbd v1.5.2PL0 Copyright (c) Steve Scherf et al.
# Submitted via: CDex 1.51
#
DISCID=a10a940c
DTITLE=Diversions (Andrew Hopson and Greg Anderson) - Moonlight Stroll and Sunset Drive
DYEAR=1997
DGENRE=Jazz
TTITLE0=Midnight Getaway - 1
TTITLE1=Midnight Getaway - 2
TTITLE2=Midnight Getaway - 3
TTITLE3=Moonlightt Stroll - 1
TTITLE4=Moonlightt Stroll - 2
TTITLE5=Moonlightt Stroll - 3
TTITLE6=Affaire de Coeur - 1
TTITLE7=Affaire de Coeur - 2
TTITLE8=Affaire de Coeur - 3
TTITLE9=Sunset Drive - 1
TTITLE10=Sunset Drive - 2
TTITLE11=Sunset Drive - 3
EXTD=YEAR: 1997
EXTT0=
EXTT1=
EXTT2=
EXTT3=
EXTT4=
EXTT5=
EXTT6=
EXTT7=
EXTT8=
EXTT9=
EXTT10=
EXTT11=
PLAYORDER=
